<svg xmlns="http://www.w3.org/2000/svg" width="24" height="24" viewBox="0 0 24 24" fill="none">
  <!-- Main axes -->
  <line x1="12" y1="2" x2="12" y2="22" stroke="#0ea5e9" stroke-width="1.5" stroke-linecap="round"/>
  <line x1="2" y1="12" x2="22" y2="12" stroke="#0ea5e9" stroke-width="1.5" stroke-linecap="round"/>
  <line x1="5.5" y1="5.5" x2="18.5" y2="18.5" stroke="#0ea5e9" stroke-width="1.5" stroke-linecap="round"/>
  <line x1="18.5" y1="5.5" x2="5.5" y2="18.5" stroke="#0ea5e9" stroke-width="1.5" stroke-linecap="round"/>
  
  <!-- Decorative branches on vertical axis -->
  <path d="M12 4 L10 6 M12 4 L14 6" stroke="#38bdf8" stroke-width="1.2" stroke-linecap="round"/>
  <path d="M12 20 L10 18 M12 20 L14 18" stroke="#38bdf8" stroke-width="1.2" stroke-linecap="round"/>
  
  <!-- Decorative branches on horizontal axis -->
  <path d="M4 12 L6 10 M4 12 L6 14" stroke="#38bdf8" stroke-width="1.2" stroke-linecap="round"/>
  <path d="M20 12 L18 10 M20 12 L18 14" stroke="#38bdf8" stroke-width="1.2" stroke-linecap="round"/>
  
  <!-- Decorative branches on diagonal axes -->
  <path d="M7 7 L6 8.5 M7 7 L8.5 6" stroke="#38bdf8" stroke-width="1.2" stroke-linecap="round"/>
  <path d="M17 17 L15.5 18 M17 17 L18 15.5" stroke="#38bdf8" stroke-width="1.2" stroke-linecap="round"/>
  <path d="M17 7 L15.5 6 M17 7 L18 8.5" stroke="#38bdf8" stroke-width="1.2" stroke-linecap="round"/>
  <path d="M7 17 L6 15.5 M7 17 L8.5 18" stroke="#38bdf8" stroke-width="1.2" stroke-linecap="round"/>
  
  <!-- Center hexagon -->
  <circle cx="12" cy="12" r="2" fill="#e0f2fe" stroke="#0ea5e9" stroke-width="1"/>
  
  <!-- Small decorative dots at the ends -->
  <circle cx="12" cy="3" r="1" fill="#38bdf8"/>
  <circle cx="12" cy="21" r="1" fill="#38bdf8"/>
  <circle cx="3" cy="12" r="1" fill="#38bdf8"/>
  <circle cx="21" cy="12" r="1" fill="#38bdf8"/>
  <circle cx="6.5" cy="6.5" r="1" fill="#38bdf8"/>
  <circle cx="17.5" cy="17.5" r="1" fill="#38bdf8"/>
  <circle cx="17.5" cy="6.5" r="1" fill="#38bdf8"/>
  <circle cx="6.5" cy="17.5" r="1" fill="#38bdf8"/>
</svg>
